<?xml version="1.0" encoding="UTF-8"?>
<svg width="400px" height="200px" viewBox="0 0 400 200" version="1.1" xmlns="http://www.w3.org/2000/svg" xmlns:xlink="http://www.w3.org/1999/xlink">
    <!-- Generator: Sketch 53.2 (72643) - https://sketchapp.com -->
    <title>三角函数</title>
    <desc>Created with Sketch.</desc>
    <g id="数学logo" stroke="none" stroke-width="1" fill="none" fill-rule="evenodd">
        <g id="iPhone-8" transform="translate(-1129.000000, -32.000000)">
            <g id="三角函数" transform="translate(1129.000000, 32.000000)">
                <rect id="Rectangle" stroke="#979797" x="0.5" y="0.5" width="399" height="199" rx="8"></rect>
                <g transform="translate(65.000000, 4.000000)">
                    <circle id="Oval" stroke="#777777" fill-opacity="0.280730988" fill="#F3F3F3" cx="135.5" cy="97.5" r="86"></circle>
                    <path d="M135,97 L160.095033,97 C161.727685,94.2897847 161.151235,90.3622309 158.365681,85.2173385 C155.580128,80.0724462 152.910529,77.5 150.356886,77.5 L135,97 Z" id="Path-6" fill-opacity="0.43006993" fill="#1AA2B4"></path>
                    <path id="Path-5" d="M157.468829,82.4435584 C157.54942,82.5571646 157.630472,82.6725744 157.711984,82.7897883 C160.656278,87.0236668 161.516435,91.6463552 160.284807,96.6201812 C160.218433,96.888228 159.947331,97.0517158 159.679284,96.9853416 C159.411237,96.9189674 159.247749,96.6478656 159.314124,96.3798188 C160.47644,91.6859031 159.671276,87.3587611 156.890987,83.3607204 C156.871528,83.3327389 156.852098,83.3048654 156.832697,83.2770998 L154.852705,85.8715407 C154.672825,86.1072423 154.33593,86.1524949 154.100228,85.9726151 C154.033973,85.9220516 153.980401,85.8567567 153.943753,85.7819013 L150.047184,77.8228301 C149.916811,77.5565318 150.027,77.234966 150.293298,77.1045928 C150.397626,77.0535161 150.515707,77.0376552 150.629816,77.0593909 L159.335014,78.7175779 C159.626277,78.7730583 159.817416,79.054149 159.761936,79.3454116 C159.74634,79.4272844 159.711897,79.5044018 159.661334,79.5706566 L157.468829,82.4435584 Z" fill="#1AA2B4" fill-rule="nonzero"></path>
                    <text id="θ" font-family="PingFangSC-Medium, PingFang SC" font-size="12" font-weight="400" fill="#1AA2B4">
                        <tspan x="147.652" y="93.5">θ</tspan>
                    </text>
                    <path id="Line" d="M269,97.5 L0.5,97.5 C0.223857625,97.5 0,97.2761424 0,97 C0,96.7238576 0.223857625,96.5 0.5,96.5 L269,96.5 L269,93.0368599 C269,92.7403604 269.24036,92.5 269.53686,92.5 C269.620205,92.5 269.702405,92.5194048 269.776951,92.5566778 L277.703114,96.5197591 C277.968311,96.6523577 278.075803,96.974835 277.943205,97.2400322 C277.891256,97.3439293 277.807011,97.4281747 277.703114,97.4801233 L269.776951,101.443205 C269.511754,101.575803 269.189276,101.468311 269.056678,101.203114 C269.019405,101.128568 269,101.046367 269,100.963023 L269,97.5 Z" fill="#000000" fill-rule="nonzero"></path>
                    <path id="Line-9" d="M135.5,9 L135.5,187.5 C135.5,187.776142 135.276142,188 135,188 C134.723858,188 134.5,187.776142 134.5,187.5 L134.5,9 L131.03686,9 C130.74036,9 130.5,8.75963965 130.5,8.46314013 C130.5,8.37979527 130.519405,8.29759501 130.556678,8.22304909 L134.519759,0.296886441 C134.652358,0.0316892081 134.974835,-0.075803209 135.240032,0.0567954074 C135.343929,0.108743956 135.428175,0.192989345 135.480123,0.296886441 L139.443205,8.22304909 C139.575803,8.48824633 139.468311,8.81072358 139.203114,8.9433222 C139.128568,8.98059515 139.046367,9 138.963023,9 L135.5,9 Z" fill="#000000" fill-rule="nonzero"></path>
                    <path d="M135,97 L188,29.3033488" id="Path-4" stroke="#000000" stroke-width="2" stroke-linecap="round" stroke-linejoin="round"></path>
                    <text id="1" font-family="PingFangSC-Medium, PingFang SC" font-size="18" font-weight="400" fill="#000000">
                        <tspan x="147.828" y="60.5">1</tspan>
                    </text>
                    <text id="sinθ" font-family="PingFangSC-Medium, PingFang SC" font-size="18" font-weight="400" fill="#FF9090">
                        <tspan x="193.175" y="34">sinθ</tspan>
                    </text>
                    <text id="cosθ" font-family="PingFangSC-Medium, PingFang SC" font-size="18" font-weight="400" fill="#3BBEFF">
                        <tspan x="165.403" y="117">cosθ</tspan>
                    </text>
                    <path id="Line-12" d="M189,42.525571 L189,96 C189,96.5522847 188.552285,97 188,97 C187.447715,97 187,96.5522847 187,96 L187,42.525571 L181.835115,42.525571 C181.373894,42.525571 181,42.1516771 181,41.6904557 C181,41.5608081 181.030185,41.432941 181.088165,41.3169807 L187.252959,28.9873944 C187.459223,28.5748654 187.960854,28.4076549 188.373383,28.6139194 C188.535001,28.6947283 188.66605,28.8257767 188.746858,28.9873944 L194.911652,41.3169807 C195.117916,41.7295098 194.950706,42.231141 194.538177,42.4374056 C194.422216,42.4953857 194.294349,42.525571 194.164702,42.525571 L189,42.525571 Z" fill="#FF9090" fill-rule="nonzero"></path>
                    <path id="Path-15" d="M174.777778,98 L135,98 C134.447715,98 134,97.5522847 134,97 C134,96.4477153 134.447715,96 135,96 L174.777778,96 L174.777778,90.8351154 C174.777778,90.3738939 175.151672,90 175.612893,90 C175.742541,90 175.870408,90.0301853 175.986368,90.0881655 L188.315954,96.2529586 C188.728483,96.4592232 188.895694,96.9608544 188.689429,97.3733835 C188.608621,97.5350012 188.477572,97.6660496 188.315954,97.7468584 L175.986368,103.911652 C175.573839,104.117916 175.072208,103.950706 174.865943,103.538177 C174.807963,103.422216 174.777778,103.294349 174.777778,103.164702 L174.777778,98 Z" fill="#3BBEFF" fill-rule="nonzero"></path>
                </g>
            </g>
        </g>
    </g>
</svg>