<?xml version="1.0" encoding="UTF-8"?>
<svg width="400px" height="200px" viewBox="0 0 400 200" version="1.1" xmlns="http://www.w3.org/2000/svg" xmlns:xlink="http://www.w3.org/1999/xlink">
    <!-- Generator: Sketch 53.2 (72643) - https://sketchapp.com -->
    <title>向量</title>
    <desc>Created with Sketch.</desc>
    <g id="数学logo" stroke="none" stroke-width="1" fill="none" fill-rule="evenodd">
        <g id="iPhone-8" transform="translate(-1673.000000, -80.000000)">
            <g id="向量" transform="translate(1673.000000, 80.000000)">
                <rect id="Rectangle" stroke="#979797" x="0.5" y="0.5" width="399" height="199" rx="8"></rect>
                <g transform="translate(25.000000, 5.000000)">
                    <path id="Line-3" d="M126.552083,171.5 L0.78125,171.5 C-0.3233195,171.5 -1.21875,170.604569 -1.21875,169.5 C-1.21875,168.395431 -0.3233195,167.5 0.78125,167.5 L126.552083,167.5 L126.552083,158.931626 C126.552083,158.140961 127.193044,157.5 127.98371,157.5 C128.205963,157.5 128.425163,157.551746 128.623952,157.651141 L149.760386,168.219358 C150.467579,168.572954 150.754225,169.432893 150.400629,170.140086 C150.262099,170.417145 150.037445,170.641799 149.760386,170.780329 L128.623952,181.348546 C127.91676,181.702142 127.05682,181.415495 126.703224,180.708303 C126.60383,180.509514 126.552083,180.290313 126.552083,180.06806 L126.552083,171.5 Z" fill="#3BBEFF" fill-rule="nonzero"></path>
                    <path id="Line-3-Copy" d="M326.552083,30.5 L200.78125,30.5 C199.676681,30.5 198.78125,29.6045695 198.78125,28.5 C198.78125,27.3954305 199.676681,26.5 200.78125,26.5 L326.552083,26.5 L326.552083,17.9316263 C326.552083,17.1409609 327.193044,16.5 327.98371,16.5 C328.205963,16.5 328.425163,16.5517463 328.623952,16.6511408 L349.760386,27.2193577 C350.467579,27.572954 350.754225,28.4328933 350.400629,29.140086 C350.262099,29.4171449 350.037445,29.6417992 349.760386,29.7803287 L328.623952,40.3485456 C327.91676,40.7021419 327.05682,40.4154954 326.703224,39.7083028 C326.60383,39.5095137 326.552083,39.290313 326.552083,39.0680601 L326.552083,30.5 Z" fill="#3BBEFF" fill-rule="nonzero"></path>
                    <path id="Line-4" d="M182.85929,43.737492 L1.93952404,171.6118 C1.03751691,172.24934 -0.210532418,172.034946 -0.848072147,171.132939 C-1.48561188,170.230932 -1.27121868,168.982883 -0.369211544,168.345343 L180.550554,40.4710352 L175.605027,33.4739796 C175.148667,32.828311 175.302133,31.9349409 175.947802,31.4785815 C176.129296,31.3503007 176.338166,31.2660383 176.557869,31.2324675 L199.917985,27.6630142 C200.699579,27.5435858 201.430002,28.0803767 201.54943,28.8619704 C201.596219,29.1681776 201.54243,29.4813004 201.396137,29.7543395 L190.235629,50.5841047 C189.862216,51.2810366 188.99453,51.5433002 188.297598,51.1698868 C188.101693,51.0649217 187.932917,50.9157864 187.804636,50.7342915 L182.85929,43.737492 Z" fill="#FF9090" fill-rule="nonzero"></path>
                    <path id="Line-4-Copy" d="M331.85929,43.737492 L150.939524,171.6118 C150.037517,172.24934 148.789468,172.034946 148.151928,171.132939 C147.514388,170.230932 147.728781,168.982883 148.630788,168.345343 L329.550554,40.4710352 L324.605027,33.4739796 C324.148667,32.828311 324.302133,31.9349409 324.947802,31.4785815 C325.129296,31.3503007 325.338166,31.2660383 325.557869,31.2324675 L348.917985,27.6630142 C349.699579,27.5435858 350.430002,28.0803767 350.54943,28.8619704 C350.596219,29.1681776 350.54243,29.4813004 350.396137,29.7543395 L339.235629,50.5841047 C338.862216,51.2810366 337.99453,51.5433002 337.297598,51.1698868 C337.101693,51.0649217 336.932917,50.9157864 336.804636,50.7342915 L331.85929,43.737492 Z" fill="#FF9090" fill-rule="nonzero"></path>
                    <text id="a" font-family="Helvetica-BoldOblique, Helvetica" font-size="28" font-style="italic" font-weight="bold" fill="#3BBEFF">
                        <tspan x="52.2138672" y="188">a</tspan>
                    </text>
                    <text id="a-copy" font-family="Helvetica-BoldOblique, Helvetica" font-size="28" font-style="italic" font-weight="bold" fill="#3BBEFF">
                        <tspan x="260.213867" y="28">a</tspan>
                    </text>
                    <text id="a+b" font-family="Helvetica-BoldOblique, Helvetica" font-size="28" font-style="italic" font-weight="bold" fill="#016370">
                        <tspan x="201.486328" y="68">a+b</tspan>
                    </text>
                    <text id="a−b" font-family="Helvetica-BoldOblique, Helvetica" font-size="15" font-style="italic" font-weight="bold" fill="#016370" fill-opacity="0.204217657">
                        <tspan x="152.867676" y="83">a−b</tspan>
                    </text>
                    <path id="Line-6" d="M153.919842,153.465113 L199.370924,27.9891384 C199.653065,27.2102367 200.51321,26.8075326 201.292112,27.0896736 C202.071013,27.3718147 202.473717,28.2319599 202.191576,29.0108616 L156.740495,154.486836 L163.19662,156.825434 C163.785143,157.038614 164.089419,157.688523 163.876238,158.277046 C163.816314,158.442478 163.718696,158.591686 163.591115,158.712853 L150.025945,171.596106 C149.572075,172.02716 148.854703,172.008664 148.423649,171.554794 C148.254774,171.37698 148.148127,171.149189 148.119715,170.905613 L145.952215,152.323526 C145.879694,151.701797 146.324914,151.138997 146.946642,151.066476 C147.121407,151.046091 147.298519,151.066675 147.46395,151.126599 L153.919842,153.465113 Z" fill-opacity="0.203043051" fill="#016370" fill-rule="nonzero"></path>
                    <text id="b" font-family="Helvetica-BoldOblique, Helvetica" font-size="30" font-style="italic" font-weight="bold" fill="#FF9090">
                        <tspan x="66.3374023" y="103">b</tspan>
                    </text>
                    <text id="b-copy" font-family="Helvetica-BoldOblique, Helvetica" font-size="30" font-style="italic" font-weight="bold" fill="#FF9090">
                        <tspan x="286.337402" y="103">b</tspan>
                    </text>
                    <path id="Line-5" d="M333.918201,36.5449128 L0.56089598,170.947435 C-0.207434279,171.257209 -1.0814107,170.885476 -1.391185,170.117146 C-1.70095929,169.348816 -1.32922624,168.474839 -0.56089598,168.165065 L332.796409,33.7625428 L330.228766,27.3940419 C329.994707,26.8135064 330.275581,26.1531469 330.856117,25.9190874 C331.019303,25.8532942 331.195566,25.8263986 331.370948,25.8405305 L350.018583,27.3431159 C350.642504,27.3933901 351.107537,27.9399335 351.057262,28.5638547 C351.037566,28.8082902 350.939121,29.0397437 350.776703,29.2234744 L338.386054,43.2400306 C337.971482,43.7090031 337.255227,43.7531033 336.786255,43.3385312 C336.654428,43.2219966 336.551545,43.0763698 336.485752,42.9131836 L333.918201,36.5449128 Z" fill="#016370" fill-rule="nonzero"></path>
                </g>
            </g>
        </g>
    </g>
</svg>