<?xml version="1.0" encoding="UTF-8"?>
<svg width="400px" height="200px" viewBox="0 0 400 200" version="1.1" xmlns="http://www.w3.org/2000/svg" xmlns:xlink="http://www.w3.org/1999/xlink">
    <!-- Generator: Sketch 53.2 (72643) - https://sketchapp.com -->
    <title>数列</title>
    <desc>Created with Sketch.</desc>
    <g id="数学logo" stroke="none" stroke-width="1" fill="none" fill-rule="evenodd">
        <g id="iPhone-8" transform="translate(-3848.000000, -101.000000)">
            <g id="数列" transform="translate(3848.000000, 101.000000)">
                <rect id="Rectangle" stroke="#979797" x="0.5" y="0.5" width="399" height="199" rx="8"></rect>
                <g transform="translate(110.000000, 3.000000)">
                    <rect id="Rectangle" stroke="#007583" stroke-width="4" fill="#D8D8D8" stroke-linejoin="round" x="-2" y="5" width="184" height="184"></rect>
                    <g id="1" transform="translate(0.000000, 7.000000)">
                        <rect id="Rectangle" fill="#D8D8D8" x="0" y="0" width="22.5" height="22.5"></rect>
                        <rect id="Rectangle-Copy" fill="#F5F5F5" x="22.5" y="0" width="22.5" height="22.5"></rect>
                        <rect id="Rectangle-Copy-2" fill="#D8D8D8" x="45" y="0" width="22.5" height="22.5"></rect>
                        <rect id="Rectangle-Copy-3" fill="#F5F5F5" x="67.5" y="0" width="22.5" height="22.5"></rect>
                        <rect id="Rectangle-Copy-4" fill="#D8D8D8" x="90" y="0" width="22.5" height="22.5"></rect>
                        <rect id="Rectangle-Copy-5" fill="#F5F5F5" x="112.5" y="0" width="22.5" height="22.5"></rect>
                        <rect id="Rectangle-Copy-6" fill="#D8D8D8" x="135" y="0" width="22.5" height="22.5"></rect>
                        <rect id="Rectangle-Copy-7" fill="#F5F5F5" x="157.5" y="0" width="22.5" height="22.5"></rect>
                    </g>
                    <g id="3" transform="translate(0.000000, 52.000000)">
                        <rect id="Rectangle" fill="#D8D8D8" x="0" y="0" width="22.5" height="22.5"></rect>
                        <rect id="Rectangle-Copy" fill="#F5F5F5" x="22.5" y="0" width="22.5" height="22.5"></rect>
                        <rect id="Rectangle-Copy-2" fill="#D8D8D8" x="45" y="0" width="22.5" height="22.5"></rect>
                        <rect id="Rectangle-Copy-3" fill="#F5F5F5" x="67.5" y="0" width="22.5" height="22.5"></rect>
                        <rect id="Rectangle-Copy-4" fill="#D8D8D8" x="90" y="0" width="22.5" height="22.5"></rect>
                        <rect id="Rectangle-Copy-5" fill="#F5F5F5" x="112.5" y="0" width="22.5" height="22.5"></rect>
                        <rect id="Rectangle-Copy-6" fill="#D8D8D8" x="135" y="0" width="22.5" height="22.5"></rect>
                        <rect id="Rectangle-Copy-7" fill="#F5F5F5" x="157.5" y="0" width="22.5" height="22.5"></rect>
                    </g>
                    <g id="5" transform="translate(0.000000, 97.000000)">
                        <rect id="Rectangle" fill="#D8D8D8" x="0" y="0" width="22.5" height="22.5"></rect>
                        <rect id="Rectangle-Copy" fill="#F5F5F5" x="22.5" y="0" width="22.5" height="22.5"></rect>
                        <rect id="Rectangle-Copy-2" fill="#D8D8D8" x="45" y="0" width="22.5" height="22.5"></rect>
                        <rect id="Rectangle-Copy-3" fill="#F5F5F5" x="67.5" y="0" width="22.5" height="22.5"></rect>
                        <rect id="Rectangle-Copy-4" fill="#D8D8D8" x="90" y="0" width="22.5" height="22.5"></rect>
                        <rect id="Rectangle-Copy-5" fill="#F5F5F5" x="112.5" y="0" width="22.5" height="22.5"></rect>
                        <rect id="Rectangle-Copy-6" fill="#D8D8D8" x="135" y="0" width="22.5" height="22.5"></rect>
                        <rect id="Rectangle-Copy-7" fill="#F5F5F5" x="157.5" y="0" width="22.5" height="22.5"></rect>
                    </g>
                    <g id="7" transform="translate(0.000000, 142.000000)">
                        <rect id="Rectangle" fill="#D8D8D8" x="0" y="0" width="22.5" height="22.5"></rect>
                        <rect id="Rectangle-Copy" fill="#F5F5F5" x="22.5" y="0" width="22.5" height="22.5"></rect>
                        <rect id="Rectangle-Copy-2" fill="#D8D8D8" x="45" y="0" width="22.5" height="22.5"></rect>
                        <rect id="Rectangle-Copy-3" fill="#F5F5F5" x="67.5" y="0" width="22.5" height="22.5"></rect>
                        <rect id="Rectangle-Copy-4" fill="#D8D8D8" x="90" y="0" width="22.5" height="22.5"></rect>
                        <rect id="Rectangle-Copy-5" fill="#F5F5F5" x="112.5" y="0" width="22.5" height="22.5"></rect>
                        <rect id="Rectangle-Copy-6" fill="#D8D8D8" x="135" y="0" width="22.5" height="22.5"></rect>
                        <rect id="Rectangle-Copy-7" fill="#F5F5F5" x="157.5" y="0" width="22.5" height="22.5"></rect>
                    </g>
                    <g id="2" transform="translate(0.000000, 29.500000)">
                        <rect id="Rectangle-Copy" fill="#F5F5F5" x="0" y="0" width="22.5" height="22.5"></rect>
                        <rect id="Rectangle-Copy-2" fill="#D8D8D8" x="22.5" y="0" width="22.5" height="22.5"></rect>
                        <rect id="Rectangle-Copy-3" fill="#F5F5F5" x="45" y="0" width="22.5" height="22.5"></rect>
                        <rect id="Rectangle-Copy-4" fill="#D8D8D8" x="67.5" y="0" width="22.5" height="22.5"></rect>
                        <rect id="Rectangle-Copy-5" fill="#F5F5F5" x="90" y="0" width="22.5" height="22.5"></rect>
                        <rect id="Rectangle-Copy-6" fill="#D8D8D8" x="112.5" y="0" width="22.5" height="22.5"></rect>
                        <rect id="Rectangle-Copy-7" fill="#F5F5F5" x="135" y="0" width="22.5" height="22.5"></rect>
                        <rect id="Rectangle-Copy-8" fill="#D8D8D8" x="157.5" y="0" width="22.5" height="22.5"></rect>
                    </g>
                    <g id="4" transform="translate(0.000000, 74.500000)">
                        <rect id="Rectangle-Copy" fill="#F5F5F5" x="0" y="0" width="22.5" height="22.5"></rect>
                        <rect id="Rectangle-Copy-2" fill="#D8D8D8" x="22.5" y="0" width="22.5" height="22.5"></rect>
                        <rect id="Rectangle-Copy-3" fill="#F5F5F5" x="45" y="0" width="22.5" height="22.5"></rect>
                        <rect id="Rectangle-Copy-4" fill="#D8D8D8" x="67.5" y="0" width="22.5" height="22.5"></rect>
                        <rect id="Rectangle-Copy-5" fill="#F5F5F5" x="90" y="0" width="22.5" height="22.5"></rect>
                        <rect id="Rectangle-Copy-6" fill="#D8D8D8" x="112.5" y="0" width="22.5" height="22.5"></rect>
                        <rect id="Rectangle-Copy-7" fill="#F5F5F5" x="135" y="0" width="22.5" height="22.5"></rect>
                        <rect id="Rectangle-Copy-8" fill="#D8D8D8" x="157.5" y="0" width="22.5" height="22.5"></rect>
                    </g>
                    <g id="6" transform="translate(0.000000, 119.500000)">
                        <rect id="Rectangle-Copy" fill="#F5F5F5" x="0" y="0" width="22.5" height="22.5"></rect>
                        <rect id="Rectangle-Copy-2" fill="#D8D8D8" x="22.5" y="0" width="22.5" height="22.5"></rect>
                        <rect id="Rectangle-Copy-3" fill="#F5F5F5" x="45" y="0" width="22.5" height="22.5"></rect>
                        <rect id="Rectangle-Copy-4" fill="#D8D8D8" x="67.5" y="0" width="22.5" height="22.5"></rect>
                        <rect id="Rectangle-Copy-5" fill="#F5F5F5" x="90" y="0" width="22.5" height="22.5"></rect>
                        <rect id="Rectangle-Copy-6" fill="#D8D8D8" x="112.5" y="0" width="22.5" height="22.5"></rect>
                        <rect id="Rectangle-Copy-7" fill="#F5F5F5" x="135" y="0" width="22.5" height="22.5"></rect>
                        <rect id="Rectangle-Copy-8" fill="#D8D8D8" x="157.5" y="0" width="22.5" height="22.5"></rect>
                    </g>
                    <g id="8" transform="translate(0.000000, 164.500000)">
                        <rect id="Rectangle-Copy" fill="#F5F5F5" x="0" y="0" width="22.5" height="22.5"></rect>
                        <rect id="Rectangle-Copy-2" fill="#D8D8D8" x="22.5" y="0" width="22.5" height="22.5"></rect>
                        <rect id="Rectangle-Copy-3" fill="#F5F5F5" x="45" y="0" width="22.5" height="22.5"></rect>
                        <rect id="Rectangle-Copy-4" fill="#D8D8D8" x="67.5" y="0" width="22.5" height="22.5"></rect>
                        <rect id="Rectangle-Copy-5" fill="#F5F5F5" x="90" y="0" width="22.5" height="22.5"></rect>
                        <rect id="Rectangle-Copy-6" fill="#D8D8D8" x="112.5" y="0" width="22.5" height="22.5"></rect>
                        <rect id="Rectangle-Copy-7" fill="#F5F5F5" x="135" y="0" width="22.5" height="22.5"></rect>
                        <rect id="Rectangle-Copy-8" fill="#D8D8D8" x="157.5" y="0" width="22.5" height="22.5"></rect>
                    </g>
                    <text id="…" font-family="PingFangSC-Medium, PingFang SC" font-size="18" font-weight="400" fill="#000000">
                        <tspan x="93" y="19">…</tspan>
                    </text>
                    <ellipse id="Oval" fill="#8125E9" cx="11.25" cy="17.78125" rx="2.8125" ry="1.40625"></ellipse>
                    <ellipse id="Oval-Copy-4" fill="#8125E9" cx="33.75" cy="14.96875" rx="2.8125" ry="1.40625"></ellipse>
                    <ellipse id="Oval-Copy-5" fill="#8125E9" cx="33.75" cy="20.59375" rx="2.8125" ry="1.40625"></ellipse>
                    <ellipse id="Oval-Copy-6" fill="#8125E9" cx="60.9375" cy="22.46875" rx="2.8125" ry="1.40625"></ellipse>
                    <ellipse id="Oval-Copy-7" fill="#8125E9" cx="60.9375" cy="14.96875" rx="2.8125" ry="1.40625"></ellipse>
                    <ellipse id="Oval-Copy-8" fill="#8125E9" cx="51.5625" cy="21.53125" rx="2.8125" ry="1.40625"></ellipse>
                    <ellipse id="Oval-Copy-9" fill="#8125E9" cx="51.5625" cy="14.03125" rx="2.8125" ry="1.40625"></ellipse>
                    <ellipse id="Oval-Copy-6" fill="#8125E9" cx="75" cy="25.28125" rx="2.8125" ry="1.40625"></ellipse>
                    <ellipse id="Oval-Copy-7" fill="#8125E9" cx="75" cy="20.59375" rx="2.8125" ry="1.40625"></ellipse>
                    <ellipse id="Oval-Copy-8" fill="#8125E9" cx="75" cy="15.90625" rx="2.8125" ry="1.40625"></ellipse>
                    <ellipse id="Oval-Copy-9" fill="#8125E9" cx="75" cy="11.21875" rx="2.8125" ry="1.40625"></ellipse>
                    <ellipse id="Oval-Copy-6" fill="#8125E9" cx="83.4375" cy="25.28125" rx="2.8125" ry="1.40625"></ellipse>
                    <ellipse id="Oval-Copy-7" fill="#8125E9" cx="83.4375" cy="20.59375" rx="2.8125" ry="1.40625"></ellipse>
                    <ellipse id="Oval-Copy-8" fill="#8125E9" cx="83.4375" cy="15.90625" rx="2.8125" ry="1.40625"></ellipse>
                    <ellipse id="Oval-Copy-9" fill="#8125E9" cx="83.4375" cy="11.21875" rx="2.8125" ry="1.40625"></ellipse>
                </g>
            </g>
        </g>
    </g>
</svg>