<?xml version="1.0" encoding="UTF-8"?>
<svg width="400px" height="200px" viewBox="0 0 400 200" version="1.1" xmlns="http://www.w3.org/2000/svg" xmlns:xlink="http://www.w3.org/1999/xlink">
    <!-- Generator: Sketch 53.2 (72643) - https://sketchapp.com -->
    <title>解析几何</title>
    <desc>Created with Sketch.</desc>
    <g id="数学logo" stroke="none" stroke-width="1" fill="none" fill-rule="evenodd">
        <g id="iPhone-8" transform="translate(-2686.000000, -81.000000)">
            <g id="解析几何" transform="translate(2686.000000, 81.000000)">
                <rect id="Rectangle" stroke="#979797" x="0.5" y="0.5" width="399" height="199" rx="8"></rect>
                <g transform="translate(45.000000, 9.000000)">
                    <ellipse id="Oval" stroke="#007583" stroke-width="2" fill-opacity="0.0513002622" fill="#1AA2B4" cx="150.498339" cy="91" rx="119.601329" ry="78"></ellipse>
                    <g id="坐标" fill="#000000" fill-rule="nonzero">
                        <path id="Line" d="M290.503322,91 L0,91 C-0.276142375,91 -0.5,90.7761424 -0.5,90.5 C-0.5,90.2238576 -0.276142375,90 0,90 L290.503322,90 L290.503322,86.5368599 C290.503322,86.2403604 290.743683,86 291.040182,86 C291.123527,86 291.205727,86.0194048 291.280273,86.0566778 L299.206436,90.0197591 C299.471633,90.1523577 299.579125,90.474835 299.446527,90.7400322 C299.394578,90.8439293 299.310333,90.9281747 299.206436,90.9801233 L291.280273,94.9432046 C291.015076,95.0758032 290.692599,94.9683108 290.56,94.7031136 C290.522727,94.6285676 290.503322,94.5463674 290.503322,94.4630225 L290.503322,91 Z"></path>
                        <path id="Path-16" d="M150.476466,9.00135169 L150.001659,180.501384 C150.000895,180.777526 149.776418,181.000763 149.500277,180.999998 C149.224136,180.999234 149.000899,180.774757 149.001663,180.498616 L149.476469,8.99858316 L146.013342,8.98899532 C145.716844,8.98817445 145.47715,8.74714957 145.477971,8.45065119 C145.478202,8.36730664 145.497834,8.28516042 145.535313,8.21071799 L149.520323,0.295557654 C149.653656,0.0307285419 149.976429,-0.0758706726 150.241258,0.0574616444 C150.345011,0.109697637 150.429023,0.194175939 150.480684,0.298216459 L154.421806,8.23532068 C154.55367,8.500884 154.445285,8.82306242 154.179722,8.95492632 C154.105073,8.99199275 154.022819,9.01116995 153.939475,9.01093921 L150.476466,9.00135169 Z"></path>
                    </g>
                    <g id="三角形" transform="translate(208.602990, 52.500000) scale(-1, 1) translate(-208.602990, -52.500000) translate(148.102990, 12.000000)" stroke-linecap="round" stroke-linejoin="round" stroke-width="2">
                        <path d="M53.820598,77.5 L119.601329,1" id="Path-4" stroke="#3BBEFF"></path>
                        <path d="M0,80.5 L118.604651,80.5" id="Path-4-Copy" stroke="#3BBEFF"></path>
                        <path d="M119.601329,78 L119.601329,2" id="Line-2-Copy" stroke="#FF9090"></path>
                        <path d="M86.461794,110.142857 L86.461794,45.8571429" id="Line-2" stroke="#8125E9" transform="translate(86.461794, 78.000000) rotate(90.000000) translate(-86.461794, -78.000000) "></path>
                    </g>
                    <text id="c" font-family="PingFangSC-Medium, PingFang SC" font-size="18" font-weight="400" fill="#8125E9">
                        <tspan x="175.87501" y="85">c</tspan>
                    </text>
                    <text id="b" font-family="PingFangSC-Medium, PingFang SC" font-size="18" font-weight="400" fill="#FF9090">
                        <tspan x="134.651223" y="53">b</tspan>
                    </text>
                    <text id="a" font-family="PingFangSC-Medium, PingFang SC" font-size="18" font-weight="400" fill="#3BBEFF">
                        <tspan x="188.732821" y="53">a</tspan>
                    </text>
                    <text id="a-copy-2" font-family="PingFangSC-Medium, PingFang SC" font-size="18" font-weight="400" fill="#3BBEFF">
                        <tspan x="230.593286" y="107">a</tspan>
                    </text>
                </g>
            </g>
        </g>
    </g>
</svg>